<?xml version="1.0" encoding="UTF-8"?>
<svg version="1.1" xmlns="http://www.w3.org/2000/svg" width="512" height="512">
<path d="M0 0 C3.72333324 0.00914202 7.44659464 -0.00496403 11.16991305 -0.01591969 C18.44298337 -0.03361298 25.71588764 -0.02990624 32.9889642 -0.01826912 C38.90522074 -0.00919862 44.82143108 -0.00802635 50.73769259 -0.01236439 C51.58294109 -0.01297732 52.42818959 -0.01359025 53.29905167 -0.01422176 C55.01669444 -0.01550079 56.73433719 -0.01679764 58.45197994 -0.01811212 C74.52052696 -0.029491 90.58898239 -0.01644664 106.65751439 0.00508934 C120.41509582 0.02295787 134.17254219 0.01985301 147.93012118 0.0014143 C163.94509975 -0.02004016 179.95999824 -0.02839261 195.97498918 -0.01613665 C197.68595988 -0.01486258 199.3969306 -0.0136051 201.10790133 -0.01236439 C201.94951199 -0.01174729 202.79112264 -0.01113018 203.65823665 -0.01049438 C209.5605148 -0.00705518 215.46274172 -0.01283881 221.36501193 -0.0222826 C228.56777656 -0.033555 235.77036705 -0.03035329 242.97311199 -0.00915962 C246.64103532 0.00128089 250.30866938 0.00559398 253.97658992 -0.00775623 C277.64793213 -0.08658112 299.40787772 1.08871574 317.36810946 18.41498852 C318.73110842 19.77290855 320.0775005 21.14743861 321.42279696 22.52289867 C322.08924228 23.15711742 322.75568759 23.79133617 323.44232821 24.44477367 C327.45374511 28.53768662 330.06776609 33.21806822 332.67279696 38.27289867 C333.0024747 38.90413647 333.33215243 39.53537426 333.6718204 40.18574047 C339.97485051 53.04501863 339.80226351 65.78952421 339.61029696 79.77289867 C339.59521911 81.69346107 339.5815362 83.61403494 339.56928134 85.53461742 C339.53653016 90.19766592 339.48492018 94.86015278 339.42279696 99.52289867 C340.13186191 99.50195141 340.84092685 99.48100414 341.57147861 99.45942211 C365.43108059 98.84818302 384.98807142 101.32935565 403.66889071 117.79633617 C416.17123478 130.17454349 424.64592924 146.82045915 424.84049106 164.60412121 C424.83598941 165.55410488 424.83148776 166.50408855 424.8268497 167.48285961 C424.83714458 169.03385105 424.83714458 169.03385105 424.84764743 170.61617565 C424.86578686 173.9966856 424.86209827 177.37672605 424.85639071 180.75727367 C424.86095675 183.12375062 424.86626358 185.49022623 424.87227511 187.85669994 C424.88117947 192.79903611 424.87881126 197.74121042 424.86884189 202.68354321 C424.8573209 209.0108083 424.87762573 215.33751788 424.90675902 221.66471004 C424.92511174 226.54437828 424.92483096 231.42391291 424.9191215 236.30360699 C424.91896836 238.63676009 424.92500662 240.96992229 424.93741298 243.30304241 C424.95231331 246.56255534 424.94165413 249.82103498 424.92450595 253.08051586 C424.93417392 254.03859646 424.94384189 254.99667706 424.95380282 255.9837904 C424.87907711 262.77724909 423.51916117 267.06225633 418.89545321 272.22992992 C412.57791781 277.18245768 407.36203116 278.48045517 399.42279696 277.52289867 C393.22571256 275.69765512 388.98359434 271.83329199 385.42279696 266.52289867 C384.12241613 262.62175617 384.24534389 258.89690347 384.2174747 254.82880688 C384.2075751 253.94079388 384.1976755 253.05278088 384.18747592 252.13785839 C384.15586407 249.19982611 384.13110468 246.26177766 384.10639071 243.32367992 C384.08582092 241.28772083 384.06482444 239.25176601 384.04341769 237.21581554 C383.98819967 231.85483283 383.93878916 226.49381159 383.8905704 221.13276196 C383.84035344 215.66316324 383.78466839 210.19362053 383.72943759 204.72407055 C383.6218593 193.99039442 383.52041355 183.25666969 383.42279696 172.52289867 C380.39768738 175.51861191 377.37851822 178.52024673 374.36029696 181.52289867 C373.51273837 182.36207836 372.66517978 183.20125805 371.79193759 184.06586742 C367.31430296 188.52621389 362.99470429 193.04788295 358.87763095 197.84321117 C357.16140274 199.82469298 355.35695735 201.68809813 353.48529696 203.52289867 C352.4836954 204.51289867 352.4836954 204.51289867 351.46185946 205.52289867 C350.10248446 206.85623201 348.74310946 208.18956534 347.38373446 209.52289867 C344.10579063 212.76287405 340.93144135 216.02986936 337.92279696 219.52289867 C333.67246885 224.45751998 329.03021359 228.96543256 324.38373446 233.52289867 C321.10579063 236.76287405 317.93144135 240.02986936 314.92279696 243.52289867 C310.67246885 248.45751998 306.03021359 252.96543256 301.38373446 257.52289867 C297.42313298 261.43762446 293.67740289 265.45604508 290.04340243 269.67524242 C287.79337944 272.24049913 285.41481237 274.6266643 282.98529696 277.02289867 C281.68785556 278.30680492 281.68785556 278.30680492 280.36420321 279.61664867 C279.72353915 280.24571117 279.08287509 280.87477367 278.42279696 281.52289867 C282.12953141 285.32681343 286.00158376 288.83465121 290.04779696 292.27289867 C290.66533847 292.8002058 291.28287997 293.32751293 291.91913486 293.87079906 C295.53096063 296.94525905 299.17637793 299.97239238 302.86029696 302.96039867 C307.96507539 307.10286247 312.91902378 311.40408966 317.87348056 315.72358227 C322.38514429 319.64791525 326.97614202 323.45723904 331.62201571 327.22211742 C336.10277317 330.90296281 340.48438883 334.6980306 344.87982821 338.47992992 C349.29481372 342.27746867 353.74214221 346.03627232 358.19232821 349.79242992 C360.40327009 351.65877447 362.60830911 353.53180186 364.80951571 355.40961742 C370.90120264 360.59967844 377.05366091 365.67395276 383.42279696 370.52289867 C383.43681552 369.66909618 383.43681552 369.66909618 383.45111728 368.79804516 C383.50525865 366.18466215 383.58881441 363.57298625 383.67279696 360.96039867 C383.68697665 360.06514477 383.70115634 359.16989086 383.71576571 358.24750805 C383.96682168 351.39368026 385.28244696 347.03270162 389.95014071 341.81586742 C396.26767612 336.86333967 401.48356277 335.56534218 409.42279696 336.52289867 C415.61988137 338.34814223 419.86199959 342.21250536 423.42279696 347.52289867 C428.33824967 362.26925679 425.12109034 383.07960352 418.87982821 396.95258617 C409.92236915 414.70352335 395.99613613 426.85503159 377.36424136 433.63605022 C364.0629117 437.54139192 350.59880107 437.0958552 336.84559393 437.04579735 C333.12226069 437.03665533 329.39899929 437.05076138 325.67568088 437.06171703 C318.40261056 437.07941033 311.12970629 437.07570359 303.85662973 437.06406647 C297.94037319 437.05499596 292.02416285 437.0538237 286.10790133 437.05816174 C285.26265284 437.05877467 284.41740434 437.0593876 283.54654226 437.06001911 C281.82889949 437.06129814 280.11125673 437.06259499 278.39361399 437.06390947 C262.32506696 437.07528834 246.25661154 437.06224399 230.18807954 437.04070801 C216.43049811 437.02283947 202.67305174 437.02594434 188.91547275 437.04438305 C172.90049418 437.06583751 156.88559569 437.07418996 140.87060475 437.06193399 C139.15963405 437.06065993 137.44866333 437.05940245 135.73769259 437.05816174 C134.89608194 437.05754463 134.05447128 437.05692753 133.18735728 437.05629173 C127.28507913 437.05285253 121.38285221 437.05863616 115.480582 437.06807995 C108.27781737 437.07935235 101.07522688 437.07615064 93.87248194 437.05495697 C90.20455861 437.04451646 86.53692455 437.04020337 82.86900401 437.05355358 C59.1976618 437.13237847 37.4377162 435.95708161 19.47748446 418.63080883 C18.11448551 417.2728888 16.76809343 415.89835873 15.42279696 414.52289867 C14.75635165 413.88867992 14.08990634 413.25446117 13.40326571 412.60102367 C9.39184882 408.50811072 6.77782784 403.82772913 4.17279696 398.77289867 C3.67828036 397.82604198 3.67828036 397.82604198 3.17377353 396.86005688 C-3.12925658 384.00077872 -2.95666958 371.25627313 -2.76470304 357.27289867 C-2.74962518 355.35233628 -2.73594228 353.43176241 -2.72368741 351.51117992 C-2.69093623 346.84813142 -2.63932626 342.18564457 -2.57720304 337.52289867 C-3.28626798 337.54384594 -3.99533292 337.56479321 -4.72588468 337.58637524 C-28.58548666 338.19761433 -48.14247749 335.7164417 -66.82329679 319.24946117 C-74.88043624 311.27232169 -80.65680363 302.15549705 -84.57720304 291.52289867 C-84.95705224 290.53635563 -84.95705224 290.53635563 -85.34457517 289.52988243 C-88.61463603 279.62394513 -88.01361804 269.36155804 -87.99712491 259.0573225 C-88.00447308 256.88463946 -88.01306148 254.7119603 -88.02279019 252.53928661 C-88.04493879 246.66091719 -88.04794011 240.78268823 -88.04604268 234.90428281 C-88.04592264 229.98427653 -88.05450052 225.06429965 -88.0628202 220.14430159 C-88.08203128 208.52821163 -88.08494683 196.91219352 -88.0781796 185.29609203 C-88.07154421 173.34398558 -88.09438854 161.39218816 -88.13149333 149.44014436 C-88.16226497 139.15184155 -88.17354215 128.86363776 -88.16965652 118.57528991 C-88.16759632 112.44244932 -88.17295497 106.30984918 -88.1975491 100.1770525 C-88.21993639 94.40417493 -88.21783901 88.63179686 -88.19762158 82.85891628 C-88.19423241 80.75156097 -88.19920924 78.64417124 -88.21360517 76.53686237 C-88.35364372 54.50067051 -83.32796653 35.85433548 -67.57720304 19.52289867 C-47.15853127 1.58948709 -25.98906621 -0.09459298 0 0 Z M-41.57720304 52.52289867 C-47.0619515 60.86570465 -47.73136666 69.17398915 -47.7109158 78.88979626 C-47.71318136 79.69333025 -47.71544692 80.49686424 -47.71778113 81.32474774 C-47.7240725 83.99668864 -47.72329491 86.66857818 -47.72246671 89.34052563 C-47.72546123 91.26472062 -47.72886443 93.18891502 -47.73264432 95.11310863 C-47.74145847 100.32602037 -47.74382134 105.53891568 -47.74446011 110.75183415 C-47.74517205 114.0123739 -47.74730909 117.2729095 -47.74995732 120.53344822 C-47.75920201 131.91885041 -47.76329328 143.3042409 -47.76250577 154.68964672 C-47.76190513 165.28578257 -47.77245653 175.88186749 -47.78824943 186.47799045 C-47.80134406 195.58992797 -47.80668886 204.70184889 -47.80605036 213.81379575 C-47.80579595 219.24947985 -47.8086157 224.68511865 -47.81922841 230.12079334 C-47.82894183 235.23521622 -47.82896637 240.34955079 -47.82171178 245.46397686 C-47.82066998 247.33476866 -47.82300461 249.20556605 -47.82907224 251.0763483 C-48.10378491 271.83101378 -48.10378491 271.83101378 -37.90923429 289.30805492 C-30.50678574 296.20232622 -22.80323632 296.95929323 -13.07720304 296.71039867 C-12.06399991 296.69686352 -11.05079679 296.68332836 -10.00689054 296.66938305 C-7.52975899 296.6343293 -5.05377376 296.58519631 -2.57720304 296.52289867 C-2.57573647 295.82035678 -2.57426991 295.11781488 -2.57275891 294.39398384 C-2.53558384 277.23920852 -2.47642849 260.08464694 -2.39330029 242.93003273 C-2.35361982 234.63391802 -2.32117184 226.33789666 -2.30620694 218.0416975 C-2.29313307 210.80429308 -2.26602372 203.56709501 -2.22258997 196.32980686 C-2.20010296 192.50350506 -2.18428459 188.67745653 -2.18531919 184.8510828 C-2.18607345 181.23692618 -2.16782138 177.62332669 -2.1360352 174.00931454 C-2.12368184 172.07635647 -2.13054004 170.14330416 -2.138345 168.21032238 C-1.91599146 149.18883399 4.82870511 132.95543087 18.42279696 119.52289867 C19.10986728 118.8139143 19.79693759 118.10492992 20.50482821 117.37446117 C37.19476025 101.21092774 58.47241269 99.9236987 80.34052157 99.97700024 C82.72694704 99.96825164 85.11336666 99.95776141 87.49977756 99.94567394 C93.93674774 99.91795118 100.37352521 99.91440623 106.8105464 99.91539383 C112.86863424 99.91447807 118.92665567 99.89141828 124.98470051 99.87042722 C136.97243905 99.82947946 148.96014366 99.80606734 160.94794345 99.79389477 C172.58306769 99.78204227 184.21812822 99.76179947 195.85321689 99.73041821 C196.57212896 99.7284821 197.29104104 99.726546 198.03173833 99.72455123 C201.63882444 99.71478571 205.24591008 99.70485677 208.85299551 99.69484663 C238.70956582 99.61220156 268.56613106 99.55840009 298.42279696 99.52289867 C298.52241445 94.56079861 298.59461476 89.59929327 298.64252353 84.63642406 C298.66251583 82.95175047 298.68971919 81.26714517 298.72455478 79.58271313 C299.21333385 66.477584 299.21333385 66.477584 294.42279696 54.52289867 C293.9161954 53.71336742 293.40959384 52.90383617 292.88764071 52.06977367 C287.72676537 45.99815562 281.39419004 42.28649324 273.44651175 41.0657481 C270.1986701 40.88567989 266.98608919 40.86073104 263.73343539 40.89470959 C261.88513863 40.88406801 261.88513863 40.88406801 259.99950254 40.87321144 C256.60935019 40.85874182 253.22061307 40.86644547 249.83056664 40.88393438 C246.16316794 40.89737689 242.49587117 40.88184692 238.82848239 40.87011242 C231.65663099 40.85178356 224.48505298 40.86021568 217.31321023 40.87820064 C211.48305725 40.89225396 205.65297823 40.89611359 199.82280993 40.89275837 C198.9915151 40.89228093 198.16022026 40.89180348 197.30373467 40.89131157 C195.61474611 40.8902852 193.92575756 40.88922984 192.23676904 40.88814581 C177.31988265 40.87958865 162.40312788 40.89622291 147.48627353 40.92597485 C133.02365222 40.95482026 118.56122041 40.9618896 104.09857821 40.94648266 C88.33273605 40.92971033 72.56698375 40.925696 56.80113924 40.94319302 C55.11914366 40.94503733 53.43714806 40.94687206 51.75515246 40.94869709 C50.51392359 40.95006522 50.51392359 40.95006522 49.24761938 40.951461 C43.42577159 40.95705918 37.60396778 40.95376602 31.78212237 40.94715214 C24.68552599 40.93940977 17.58911594 40.94620428 10.49255703 40.97132718 C6.87414654 40.98380018 3.25602581 40.98999564 -0.36239552 40.97878551 C-4.28904459 40.96685037 -8.21519649 40.98604566 -12.14180875 41.00823498 C-13.84799357 40.99587383 -13.84799357 40.99587383 -15.58864677 40.98326296 C-26.19702499 41.09386495 -34.51031318 44.43985473 -41.57720304 52.52289867 Z M66.42279696 140.52289867 C70.54447865 145.3315273 74.66714292 150.03012012 78.98529696 154.64789867 C79.58736972 155.29315502 80.18944247 155.93841137 80.80975986 156.60322094 C85.40035921 161.4957467 90.09446625 166.27298113 94.89569736 170.95893383 C97.66030054 173.67603524 100.27095082 176.46441395 102.80170321 179.40180492 C106.47759524 183.65184975 110.41298929 187.58990724 114.42279696 191.52289867 C119.03082651 196.04265179 123.43297493 200.63222094 127.64545321 205.52289867 C130.74666281 209.01261145 134.09113828 212.25506487 137.42279696 215.52289867 C142.03082651 220.04265179 146.43297493 224.63222094 150.64545321 229.52289867 C153.74666281 233.01261145 157.09113828 236.25506487 160.42279696 239.52289867 C164.39065183 243.41474099 168.29032256 247.30565289 171.91889071 251.51899242 C175.56915938 255.75711269 179.49420625 259.6702564 183.48529696 263.58539867 C187.8972404 267.91386163 192.1676761 272.23597055 196.06586337 277.03876781 C200.1399934 281.49480172 205.24799321 283.23462969 211.17279696 283.60492992 C219.93618793 283.2854313 225.55527131 277.51432382 231.42279696 271.52289867 C232.53191123 270.26143918 233.63423782 268.99399401 234.73139071 267.72211742 C239.05432345 262.72728678 243.7488685 258.14560245 248.46185946 253.52289867 C251.7398033 250.2829233 254.91415257 247.01592799 257.92279696 243.52289867 C262.17312508 238.58827737 266.81538034 234.08036479 271.46185946 229.52289867 C274.7398033 226.2829233 277.91415257 223.01592799 280.92279696 219.52289867 C285.17312508 214.58827737 289.81538034 210.08036479 294.46185946 205.52289867 C297.7398033 202.2829233 300.91415257 199.01592799 303.92279696 195.52289867 C308.17312508 190.58827737 312.81538034 186.08036479 317.46185946 181.52289867 C320.7398033 178.2829233 323.91415257 175.01592799 326.92279696 171.52289867 C331.17312508 166.58827737 335.81538034 162.08036479 340.46185946 157.52289867 C345.84214397 152.20493407 351.21446238 146.83540055 355.42279696 140.52289867 C260.05279696 140.52289867 164.68279696 140.52289867 66.42279696 140.52289867 Z M38.42279696 172.52289867 C38.42279696 237.86289867 38.42279696 303.20289867 38.42279696 370.52289867 C42.47260232 368.497996 45.49778982 366.03959807 48.86029696 363.08539867 C50.11776661 361.99385774 51.37558685 360.90272059 52.63373446 359.81196117 C53.58457919 358.98486645 53.58457919 358.98486645 54.5546329 358.14106274 C57.34509913 355.72402012 60.16343163 353.34063324 62.98529696 350.96039867 C64.05952817 350.05286133 65.13374691 349.14530924 66.20795321 348.23774242 C66.73791903 347.7902766 67.26788486 347.34281078 67.81391025 346.88178539 C70.51851986 344.59743682 73.22051824 342.31000359 75.92279696 340.02289867 C77.00611795 339.10621742 78.08945128 338.18955075 79.17279696 337.27289867 C79.70904696 336.81914867 80.24529696 336.36539867 80.79779696 335.89789867 C89.73529696 328.33539867 89.73529696 328.33539867 98.67279696 320.77289867 C99.2092081 320.31898754 99.74561923 319.86507641 100.29828525 319.39741039 C101.37989217 318.48225455 102.46159766 317.56721517 103.54340243 316.65229321 C106.27897635 314.3384639 109.01272171 312.02253396 111.74310946 309.70258617 C117.66064413 304.67813264 123.61343355 299.70563261 129.63373446 294.80414867 C134.59388031 290.74711061 139.50640486 286.63276223 144.42279696 282.52289867 C140.69202255 278.04596937 136.83689581 273.85711306 132.64545321 269.80805492 C130.73688271 267.84581636 128.95414789 265.84175344 127.16889071 263.76899242 C123.44602164 259.48200714 119.47453106 255.49701335 115.42279696 251.52289867 C110.81476742 247.00314555 106.41261899 242.4135764 102.20014071 237.52289867 C99.09893111 234.03318589 95.75445564 230.79073247 92.42279696 227.52289867 C87.81476742 223.00314555 83.41261899 218.4135764 79.20014071 213.52289867 C76.09893111 210.03318589 72.75445564 206.79073247 69.42279696 203.52289867 C64.81540355 199.0037695 60.40789196 194.41642673 56.1952579 189.52680492 C53.12167762 186.05188111 49.83683524 182.79243672 46.54779696 179.52289867 C45.87232821 178.84356274 45.19685946 178.1642268 44.50092196 177.46430492 C43.53799228 176.50330883 43.53799228 176.50330883 42.55560946 175.52289867 C41.68766757 174.65664867 41.68766757 174.65664867 40.8021915 173.77289867 C39.60954785 172.41098252 39.60954785 172.41098252 38.42279696 172.52289867 Z M172.42279696 311.52289867 C171.82853915 312.06817211 171.23428134 312.61344555 170.62201571 313.17524242 C165.36512226 317.95795265 159.99786022 322.53784043 154.47357821 327.00727367 C150.90223198 329.95214817 147.41065209 332.98006843 143.92279696 336.02289867 C138.79063626 340.4983739 133.59093898 344.86297419 128.29779696 349.14789867 C124.78731943 352.04785838 121.35449762 355.03051062 117.92279696 358.02289867 C112.7670398 362.51797565 107.54768818 366.9091309 102.23139071 371.21430492 C98.3152796 374.43325022 94.48210184 377.74550056 90.64472079 381.05756664 C85.95247578 385.09733394 81.172735 389.01106062 76.33685946 392.87836742 C75.38939853 393.69241039 75.38939853 393.69241039 74.42279696 394.52289867 C74.42279696 394.85289867 74.42279696 395.18289867 74.42279696 395.52289867 C164.51279696 395.52289867 254.60279696 395.52289867 347.42279696 395.52289867 C340.1064913 388.20659301 332.43682301 381.47351836 324.39935946 374.96430492 C321.07495574 372.23759583 317.80675338 369.45216907 314.54779696 366.64789867 C309.99983813 362.73458203 305.44313274 358.83284634 300.86029696 354.96039867 C300.06196445 354.28581615 300.06196445 354.28581615 299.247504 353.59760571 C298.17566356 352.69221426 297.10372371 351.7869405 296.03168368 350.88178539 C293.86976534 349.05580094 291.70956117 347.22779543 289.54950595 345.39960766 C288.46713442 344.48357989 287.38461544 343.56772632 286.30194736 342.65204906 C283.56642964 340.3383308 280.83278485 338.02245973 278.10248446 335.70258617 C272.10007262 330.60641562 266.05386271 325.57521391 259.94623446 320.60492992 C256.3701075 317.65434839 252.8838698 314.60712117 249.42279696 311.52289867 C247.18624961 312.6305726 244.96740978 313.76261128 242.75873446 314.92524242 C227.02319541 323.08364196 210.78690972 325.94268687 193.47992587 321.20795727 C188.27894458 319.47594285 183.45485347 316.88028053 178.65326571 314.26508617 C175.53923647 312.46616724 175.53923647 312.46616724 172.42279696 311.52289867 Z " fill="#31C6FE" transform="translate(87.57720303535461,37.47710132598877)"/>
</svg>
