<?xml version="1.0" encoding="UTF-8"?>
<svg version="1.1" viewBox="0 0 2048 2048" width="1280" height="1280" xmlns="http://www.w3.org/2000/svg">
<path transform="translate(996)" d="m0 0h58l36 4 44 7 48 12 29 10 28 11 27 13 17 8 20 12 26 16 21 16 16 12 14 12 14 13 8 7 18 18 7 8 11 12 9 11 10 13 14 19 10 15 12 20 11 19 11 22 11 24 14 38 5 15 12 48 7 44 3 36v52l-2 31-3 25-8 43-7 27-12 38-11 26-13 29-10 19-13 22-11 18-10 14-10 13-12 16-9 11-10 10-7 8-11 11-7 8-12 11-11 9-14 12-12 9v2l30 11 18 8 11 7 10 9 10 14 6 13 4 16 1 11-2 16-4 14-8 15-8 10-11 10-14 8-15 5-13 2h-12l-13-2-20-6-36-12-26-8-49-12-24-5-45-7-35-4-47-3-49-1-43 2-38 3-37 5-42 7-58 14-27 8-45 15-32 13-37 16-16 8-33 17-22 12-19 12-25 16-18 12-16 12-13 10-17 13-14 11-13 12-20 18-8 7-12 11-8 8-7 8-10 10-14 16h-2l-2 4-10 11-11 14-13 16-13 17-11 15-29 44-8 13-25 45-11 21-16 36-11 25-22 63-10 37-10 40-2 15v12l3 16 6 15 9 14 8 9 14 10 16 7 16 3 12 1 285 1 16 2 16 6 11 7 10 9 8 9 8 14 5 14 2 13v11l-3 17-6 15-7 11-9 10-11 9-16 8-19 5h-312l-23-4-19-4-23-7-23-10-22-12-18-13-13-11-12-11-12-13-11-14-12-18-10-18-10-23-8-26-5-24-2-13v-48l5-25 16-64 7-25 20-59 9-24 13-29 12-27 11-24 13-24 13-23 14-26 7-10 29-44 13-19 14-18 13-16 10-13 13-16 9-11 8-8 7-8 9-9 1-2h2l2-4 11-11 7-8 18-18 8-7 10-9 11-10 8-7 10-9 8-7 16-13 13-10 20-15 17-12 22-15 17-11 21-13 26-15 16-9 33-17 33-16 38-16 34-13 23-8 7-2-5-5-11-10-11-9-15-13-12-11-9-10-8-8-7-8-9-9-13-17-14-18-13-18-13-22-14-24-8-16-14-31-9-23-12-38-6-23-7-37-4-26-3-36v-40l2-34 3-24 6-37 9-36 8-26 13-35 9-20 8-17 10-19 9-15 13-21 12-17 16-21 7-9 10-11 7-8 11-12 7-8 24-22 8-7 12-10 16-12 19-14 21-13 20-12 23-12 30-14 35-13 21-7 44-11 43-7 25-3zm10 160-26 2-32 5-36 9-31 11-18 8-19 9-25 15-15 10-21 16-11 9-8 8-8 7-12 12-7 8-10 11-12 16-10 14-13 21-9 16-12 25-10 26-7 22-7 29-4 24-3 37v30l3 34 5 30 7 28 11 32 12 27 12 23 11 18 11 16 13 17 9 10 7 8 11 12 8 8 8 7 10 9 17 13 11 8 20 13 18 10 16 8 20 9 24 9 28 8 30 6 35 4h54l29-3 35-7 31-9 19-7 23-10 20-10 17-10 15-10 14-10 14-11 13-11 12-12 8-7 1-3h2l7-8 11-13 13-17 13-19 10-17 6-10 11-23 10-25 7-21 7-27 5-27 3-29 1-20v-15l-2-32-5-33-7-30-7-23-11-28-14-29-12-20-9-14-14-19-9-11-9-10-12-13-13-13-8-7-12-10-16-12-13-9-28-17-24-12-27-11-24-8-33-8-32-5-29-2z" fill="#38BDFE"/>
<path transform="translate(1536,1252)" d="m0 0h255l29 2 26 5 24 8 18 8 18 10 19 14 14 12 13 13 13 17 7 10 8 14 8 16 14 34 9 25 15 48 8 32 8 45 5 42 1 10v62l-5 46-6 37-6 29-8 29-12 39-7 20-16 40-10 20-10 16-10 13-12 14-11 11-17 13-11 8-18 10-17 8-24 8-26 6-15 2h-283l-25-4-25-6-17-6-16-7-22-13-13-10-10-8-8-7-7-8-8-8-14-19-8-13-10-19-10-26-11-31-13-48-3-15v-17l3-14 5-13 9-14 9-10 14-10 13-6 12-3 8-1h12l15 2 13 5 11 6 9 7 9 9 9 14 6 15 11 39 11 33 7 16 8 11 9 8 14 7 16 3h254l17-3 16-8 9-9 8-14 11-27 7-19 12-41 8-37 5-30 2-20 1-23v-17l-2-32-4-28-8-39-5-19-11-35-12-30-6-14-7-11-10-9-13-6-14-3h-261l-14 3-14 7-9 9-8 15-9 24-10 32-8 27-5 13-6 11-9 10-7 7-13 8-12 5-13 3-15 1-548 1-7 8-19 19-7 8-18 18-1 2h-2v2l-3 2 2 4 37 37v2h2v2h2l7 8 9 9 2 1 229 1 16 2 15 5 10 6 9 7 10 10 7 11 6 13 3 12 1 9v9l-2 14-5 15-6 11-8 10-9 9-15 9-14 5-10 2-15 1h-253l-16-1-15-4-16-8-10-8-13-12-7-8-38-38v-2h-2l-7-8-37-37v-2l-3-1-7-8-31-31-9-12-8-16-3-11-1-7v-17l3-14 5-13 6-10 9-11 5-6h2l2-4 25-25 2-3h2l2-4 29-29 7-8 24-24 7-8 23-23 3-4h2v-2l11-9 9-6 8-4 16-5 10-1 528-1 4-9 12-32 8-18 9-16 14-20 9-10 14-15 14-11 12-9 21-12 15-7 20-7 26-6 16-2z" fill="#37BDFE"/>
<path transform="translate(502,1067)" d="m0 0 5 1-1 5-8 5-7 4-5 5h-2v3l-11 7-9 11h1l4 1 6-3 2 2-1 4 3 1h6l8-5-1 5 2 5 3 1v-2l9-1 3-1-2 5-1 2h-2v3h-2l-3 9-6 9-3 5-4 20-1 6h-2l-1 7-3 7-7 12-3 10-7 6-2 6h-2l-2 5-4 7-1 7-1 5h-3v3h2v2l-4 1-2-1-1 4-3 1-1 3h2v6l-3 1 1 2h-2l1 2 8-1 2-4 7-2 6-4h3v-2l7-3h3v-2l15-3 4-3h7l-2 3-3 1-1 5-18 18h-2v2l7-1 1 3-16 12-15 13-15 14-8 7-20 18-9 9-7 8-10 10-14 16h-2l-2 4-10 11-11 14-13 16-13 17-11 15-29 44-8 13-25 45-11 21-16 36-11 25-22 63-10 37-10 40-2 15v12l3 16 6 15 9 14 8 9 14 10 16 7 16 3 12 1 285 1 16 2 16 6 11 7 10 9 8 9 8 14 5 14 2 13v11l-3 17-6 15-7 11-9 10-11 9-16 8-19 5h-312l-23-4-19-4-23-7-23-10-22-12-18-13-13-11-12-11-12-13-11-14-12-18-10-18-10-23-8-26-5-24-2-13v-48l5-25 16-64 7-25 20-59 9-24 13-29 12-27 11-24 13-24 13-23 14-26 7-10 29-44 13-19 14-18 13-16 10-13 13-16 9-11 8-8 7-8 9-9 1-2h2l2-4 11-11 7-8 18-18 8-7 10-9 11-10 8-7 10-9 8-7 16-13 13-10 20-15 17-12 22-15 17-11 21-13z" fill="#0BE1FE"/>
<path transform="translate(1718,1568)" d="m0 0h12l14 2 16 6 11 7 10 9 9 10 8 15 4 12 2 13v10l-2 14-5 15-6 11-8 10-9 9-15 9-14 5-9 2-15 1-16-2-14-5-13-7-12-11-8-9-6-10-6-17-2-11v-16l3-15 5-13 9-14 9-10 11-8 16-8 11-3z" fill="#38BDFE"/>
<path transform="translate(250,1888)" d="m0 0h280l16 2 16 6 11 7 10 9 8 9 8 14 5 14 2 13v11l-3 17-6 15-7 11-9 10-11 9-16 8-19 5h-56l2-5-5-2-2-5 1-4 1-2h2l1-2 3-4h2l1-18 2-4h3v-2l2-1-1-5-4-1 2-5v-2h3v-5h2v-2l2-1v-4h-4l2-4 3-3-1-7-2-1-1-4 4-5 4-13v-8l5-9 3-2 3-11 3-5-1-4-5-1v-2h3v-2h-2v-3l-260-1z" fill="#38BCFE"/>
<path transform="translate(510,375)" d="m0 0h2l-1 5-2 5v11l-3 5h-2l1 4-1 5 2 1-2 12v18l-1 10-1 1v10l1 3v7l-3 9h-2l1 4 3 1v13h-1l-2 15 2 10-2 4-1-3-3 1-2 24 2 9v27l-1 2h4l-1 6 1 4 1 13 2 9 1 11-1 8-3 1 1 1v9h-3l-2-9-4-6-2-12-3-5-3-23-2-27v-40l2-34 3-24 6-37 9-36 5-11z" fill="#0DE0FE"/>
<path transform="translate(1571,1398)" d="m0 0h17l26 1 50 3 7 1-4 2 38 1-2 2 6-2v-1l20-1h39l15 3 11-1 7 2 2 4-2 1h-267l-14 3-14 7-9 9-6 10-3-1-1-4 10-15 8-7 12-7 11-5 17-3z" fill="#49BCFE"/>
<path transform="translate(1461,225)" d="m0 0 4 1 13 18 12 20 13 22 12 24 11 24 14 38 5 15 5 19-1 5-4-4-2-11h-2l-3-8-4-11-2-8-8-20-4-14-7-14-7-15-9-19-16-28-8-11-4-8-2-5v-3h-2v-2h-2z" fill="#52B8FE"/>
<path transform="translate(1729,1404)" d="m0 0h39l15 3 11-1 7 2 2 4-2 1-59-2-58-1v-1l-6-1v-2h27l-2 2 6-2v-1z" fill="#54B7FE"/>
<path transform="translate(1449,1547)" d="m0 0 3 2-1 5-9 10-4 3-7-1-1 3-3 2h-3l-1 2-11 3-16 2h-9l-10 1-24-1v-2l-2-1 36-3 4-4h3v3h13l9-3 6-3 7-2 10-5 7-9z" fill="#54B7FE"/>
<path transform="translate(1427,530)" d="m0 0 5 4 5 2 1 9v8l-2 4-1 5-6 2-1 3-1 9-1 4h-3l1-4h-2l2-7-2-4-2-2 2-5-2-2 1-5 1-1v-10l2-4h-2l1-4z" fill="#54B7FE"/>
<path transform="translate(1442,884)" d="m0 0 4 1-2 4-8 10-10 10-7 8-9 9-10 2 2-5 3-5h2l2-4 6-7 4-1v-2l6-5h2v-2l5-4 1-2h2v-2h2v-2l5-1z" fill="#52B8FE"/>
<path transform="translate(1897,2017)" d="m0 0 3 1-21 11-21 8-26 7-8 1 5-7 16-6 10-2 14-3 12-4 12-5z" fill="#53B7FE"/>
<path transform="translate(1417,1119)" d="m0 0h2l1 4-11 10-14 8-15 5-6-1-1-3-2-2 8-4 12-3 5-3 7-2 9-6z" fill="#52B7FE"/>
<path transform="translate(1414,1991)" d="m0 0 9 4 10 6 10 8 7 4 5 3 5 2v3h3l4 5-5-1-12-5-7-3v-2l-6-1-10-7-9-9-1-2h-2z" fill="#55B7FF"/>
<path transform="translate(1562,487)" d="m0 0 3 1 2 27v20l-1 13h-3l-1 2-2-35 2-19z" fill="#51B8FE"/>
<path transform="translate(1401,810)" d="m0 0 1 4-1 7-2 7-1 5h-2l1 6-2 5-4 1-1 4h-3l1 7h-2v2h-2l1-13 2-4 3-11 2-4 1-3h2l1-4 3-5z" fill="#55B7FF"/>
<path transform="translate(1407,526)" d="m0 0h5l2 10v6l2 3-1 8h2l2 4-2 1v5l1 2-2 4-1-3-1-11-2-5 2-4h-2v6l1 4-3 1 2 5-1 2h-2v2h-2z" fill="#52B8FE"/>
<path transform="translate(1388,1072)" d="m0 0v3l-1 4 2 4-1 10-3 5-4 2h-5l-4 4-4-1 5-4 1-6 3-3 2-5 3-2 3-9z" fill="#55B7FF"/>
<path transform="translate(1396,930)" d="m0 0h3l2 3-1 4-11 10-11 9-4 2v-4l-3-1h2v-2h2v-2l11-8 4-1 1-3h2v-2h2z" fill="#52B7FE"/>
<path transform="translate(1672,1587)" d="m0 0h1v5l-8 10-1 2h-2l-2 5-4 7-4 8-4-2 5-12 8-12 9-10z" fill="#51B8FE"/>
<path transform="translate(1888,1277)" d="m0 0 5 1 16 9v3l-6-1-4-3-7-2-4-5z" fill="#51B8FE"/>
<path transform="translate(1675,1707)" d="m0 0 5 1 9 5 1 5-3 1-10-6-2-3z" fill="#52B8FE"/>
<path transform="translate(1396,930)" d="m0 0h3l2 3-1 4-11 10h-2l1-3h2l1-7h2v-2h2z" fill="#4CBAFE"/>
<path transform="translate(1392,1137)" d="m0 0 4 2-1 2-11 4h-4l-1-3 5-4z" fill="#3DBCFE"/>
<path transform="translate(500,662)" d="m0 0 6 6v7l-3-1-1 2-3-2-1-8z" fill="#0BE2FE"/>
<path transform="translate(1495,2036)" d="m0 0h6l4 3 1 6-5-2-2-2-5-2-1-2z" fill="#55B7FF"/>
<path transform="translate(1466,1798)" d="m0 0 3 1 5 17-1 3-3-3-1-9-2-2z" fill="#50B9FE"/>
<path transform="translate(1834,1428)" d="m0 0 5 2 2 4v3l-4 2-4-6z" fill="#53B7FE"/>
<path transform="translate(1743,1719)" d="m0 0 9 2v2l-13 3 1-5z" fill="#52B8FE"/>
<path transform="translate(1807,1413)" d="m0 0h8l6 4v2l-3 1-11-5z" fill="#52B8FE"/>
<path transform="translate(1551,426)" d="m0 0h2l1 4 2 1 1 7-2 1-4-4z" fill="#53B7FE"/>
<path transform="translate(1432,523)" d="m0 0h3l2 3-1 4-1 2h-3l-2-4 1-4z" fill="#55B7FF"/>
<path transform="translate(1414,548)" d="m0 0h1v5h2l2 4-2 1v5l1 2-2 4-1-3-1-11-2-5z" fill="#55B7FF"/>
<path transform="translate(561,2035)" d="m0 0h5v2l-8 4h-5l1-3h2v-2z" fill="#12DCFE"/>
<path transform="translate(1772,1585)" d="m0 0 4 2 8 8-2 1-6-4-4-4z" fill="#53B8FE"/>
<path transform="translate(467,1281)" d="m0 0h2l1 4-6 4-3-1 1-4 5-1z" fill="#36BEFE"/>
<path transform="translate(1454,1539)" d="m0 0 4 1-4 9-1-2-3-1z" fill="#55B7FF"/>
<path transform="translate(1395,1977)" d="m0 0 4 1 9 7 1 2-10-4z" fill="#55B7FF"/>
<path transform="translate(1906,2009)" d="m0 0 5 1-4 4-5 3-2-1z" fill="#50B8FE"/>
<path transform="translate(486,619)" d="m0 0 3 4 2 10-1 2h-2l-2-11z" fill="#3BBCFE"/>
<path transform="translate(497,517)" d="m0 0 4 5-1 6-2-1v-2h-2l-1-6h2z" fill="#1FD1FE"/>
<path transform="translate(498,651)" d="m0 0h3v5l-2 5-4-5 3-1z" fill="#0BE2FE"/>
<path transform="translate(1566,553)" d="m0 0h1v14l-2 1-1-7z" fill="#4DBBFE"/>
</svg>
