<?xml version="1.0" encoding="UTF-8"?>
<svg version="1.1" xmlns="http://www.w3.org/2000/svg" width="512" height="512">
<path d="M0 0 C0.84251082 -0.00367669 1.68502164 -0.00735338 2.55306309 -0.01114148 C5.36921853 -0.02213236 8.185337 -0.0260144 11.00151062 -0.02983093 C13.02404903 -0.03609928 15.0465863 -0.04274641 17.06912231 -0.04974365 C23.70762841 -0.07075039 30.34613464 -0.08114608 36.98466492 -0.09111023 C39.27562662 -0.0951597 41.56658821 -0.09927668 43.85754967 -0.10346031 C54.62758452 -0.12250821 65.39761256 -0.13673747 76.16766101 -0.14507228 C88.56883272 -0.15482946 100.96982521 -0.18111104 113.37093383 -0.22157317 C122.97463955 -0.25182395 132.57829418 -0.26654982 142.18204659 -0.26985329 C147.90864949 -0.27219444 153.63506086 -0.28103192 159.36161232 -0.30631447 C164.75843843 -0.32975598 170.15494911 -0.33376431 175.55181313 -0.32355309 C177.52007095 -0.32306143 179.48834517 -0.32927103 181.45655441 -0.34310913 C196.46786726 -0.44264502 211.53933558 0.58173277 224.99638367 7.95967102 C225.65308044 8.30368958 226.30977722 8.64770813 226.9863739 9.00215149 C232.28176807 11.85246008 236.9601195 15.19806422 241.49638367 19.14717102 C242.0829071 19.59189758 242.66943054 20.03662415 243.27372742 20.49482727 C251.43083791 26.83924655 257.0665807 35.78210407 261.80888367 44.83467102 C262.2786261 45.69487854 262.2786261 45.69487854 262.75785828 46.57246399 C270.45828045 62.03910633 270.07427211 79.08379587 270.01396179 95.90913391 C270.01939183 98.4700612 270.02651941 101.03098536 270.03520203 103.59190369 C270.05145047 109.7840061 270.04920936 115.97585342 270.03755146 122.16795874 C270.02847147 127.20134856 270.02731269 132.23468408 270.03164673 137.26807976 C270.03225966 137.98783593 270.03287259 138.7075921 270.0335041 139.44915907 C270.03478313 140.91178415 270.03607999 142.37440922 270.03739446 143.83703428 C270.04875907 157.50180891 270.03574776 171.16647561 270.014193 184.83123254 C269.99629128 196.54296305 269.99945932 208.25453509 270.01786804 219.96626282 C270.03928852 233.60028752 270.04769689 247.23421829 270.03541899 260.86825746 C270.03414489 262.32237302 270.03288741 263.77648859 270.03164673 265.23060417 C270.03072108 266.30354261 270.03072108 266.30354261 270.02977672 267.39815657 C270.02632991 272.42706216 270.03213696 277.45590784 270.04156494 282.48480415 C270.05397243 289.25082929 270.04510395 296.01650887 270.02198792 302.78252029 C270.01670085 305.26412013 270.0182145 307.7457452 270.02703857 310.22733498 C270.03797594 313.61555034 270.02425129 317.00280638 270.00431824 320.39096069 C270.01770257 321.8619188 270.01770257 321.8619188 270.03135729 323.36259323 C269.95493673 330.06330592 268.75399264 335.63098255 264.08454943 340.67107254 C258.5614673 345.56220142 253.44842837 346.60838149 246.28544617 346.46357727 C240.82465572 345.84407583 237.03074341 343.68153076 233.18388367 339.83467102 C228.84653238 332.92703748 228.0616416 327.70407307 228.12457275 319.66738892 C228.12074819 318.62448533 228.11692363 317.58158174 228.11298317 316.50707501 C228.10371123 313.01888741 228.11568183 309.53109809 228.12748718 306.04292297 C228.12501879 303.53922359 228.12117999 301.03552523 228.11607361 298.53182983 C228.10773708 293.14240988 228.10823674 287.75309984 228.11625862 282.36368752 C228.12750999 274.55851019 228.11843104 266.75345374 228.10369682 258.94828691 C228.07993665 246.2666182 228.06656161 233.58496443 228.06254578 220.90327454 C228.06230091 220.14478339 228.06205604 219.38629224 228.06180375 218.60481652 C228.05925944 210.14821093 228.05869025 201.69160649 228.05973816 193.23500061 C228.06007118 190.17097473 228.06035658 187.10694886 228.06059265 184.04292297 C228.06065544 183.28687601 228.06071823 182.53082904 228.06078292 181.75187156 C228.06138879 169.12254091 228.04646314 156.49327909 228.0197596 143.86397713 C228.00399417 136.08399831 228.00165469 128.30424236 228.01689362 120.52426132 C228.02751812 114.55449345 228.01762009 108.58493881 228.00033569 102.61517906 C227.9966175 100.1739648 227.99969416 97.73272889 228.01020622 95.29153442 C228.22073874 72.30222105 228.22073874 72.30222105 216.49638367 53.14717102 C204.76229976 41.77413585 191.24608422 41.55782713 175.85746765 41.6295929 C173.89326969 41.62416391 171.9290758 41.61703692 169.96488953 41.60835266 C164.66120895 41.59020997 159.3578417 41.59714899 154.05415606 41.609869 C148.48728809 41.62004233 142.92044576 41.61059147 137.35357666 41.60432434 C128.00863358 41.59706113 118.66381724 41.60660144 109.31889343 41.62568665 C98.53400377 41.64745913 87.74941658 41.64039582 76.96453422 41.61838102 C67.68264228 41.60019683 58.40084109 41.59768327 49.11893708 41.6081357 C43.58491153 41.6143532 38.05102792 41.61525421 32.51701164 41.60198975 C27.31377712 41.59038766 22.11093059 41.59853644 16.90773773 41.62156677 C15.00469925 41.62683035 13.10162779 41.62538065 11.19860268 41.61651611 C-1.88177915 41.56122915 -12.49845056 42.20104426 -22.94502258 50.97529602 C-24.50361633 52.14717102 -24.50361633 52.14717102 -26.50361633 52.14717102 C-26.7833429 52.72982727 -27.06306946 53.31248352 -27.35127258 53.91279602 C-28.43537346 56.01484924 -29.63506406 57.92792086 -30.94111633 59.89717102 C-37.89097531 70.98824391 -37.65247628 82.45277163 -37.6373291 95.20828247 C-37.63919978 96.62642959 -37.64150151 98.0445762 -37.64419442 99.462722 C-37.65028698 103.34136782 -37.65018184 107.21999201 -37.64900005 111.09864151 C-37.6487954 115.28893941 -37.65432089 119.47923047 -37.65905762 123.66952515 C-37.66735054 131.87194619 -37.67011184 140.07436005 -37.67067 148.27678493 C-37.67114576 154.94599576 -37.67320352 161.61520422 -37.67637062 168.28441429 C-37.68517315 187.20656397 -37.68979057 206.12870799 -37.68904015 225.05085973 C-37.68898021 226.57978748 -37.68898021 226.57978748 -37.68891907 228.13960266 C-37.68885775 229.67040403 -37.68885775 229.67040403 -37.68879519 231.23213067 C-37.68838873 247.7713027 -37.69795915 264.31045196 -37.71205743 280.8496174 C-37.72643023 297.8453484 -37.73332713 314.84106829 -37.73246366 331.83680552 C-37.73213202 341.37324688 -37.73486454 350.90966436 -37.74564171 360.44610023 C-37.75475855 368.5651379 -37.7569122 376.68414087 -37.75013229 384.80318145 C-37.74687319 388.94237456 -37.74678832 393.08150113 -37.75548553 397.22068787 C-37.76337838 401.01621471 -37.76189086 404.81162255 -37.7532014 408.60714658 C-37.75095309 410.61696888 -37.75847309 412.62679494 -37.76644105 414.6366027 C-37.72861811 424.64281613 -37.37339073 434.71896699 -32.56611633 443.70967102 C-32.0620929 444.68033508 -31.55806946 445.65099915 -31.03877258 446.65107727 C-29.68107222 448.85863588 -28.33101921 450.35249775 -26.50361633 452.14717102 C-26.50361633 452.80717102 -26.50361633 453.46717102 -26.50361633 454.14717102 C-25.66250305 454.54935852 -25.66250305 454.54935852 -24.80439758 454.95967102 C-21.48672949 456.67201584 -18.38299921 458.70718191 -15.23408508 460.70967102 C-9.36733774 463.79831626 -3.64543737 464.44145219 2.88815308 464.41459656 C3.70646128 464.41912767 4.52476949 464.42365878 5.36787492 464.4283272 C8.09590939 464.44093561 10.8237433 464.43935313 13.55180359 464.43769836 C15.51363887 464.44368592 17.47547179 464.45049199 19.43730164 464.45805359 C24.75778374 464.4756997 30.07820148 464.48040845 35.39871001 464.48168516 C38.72642861 464.48310834 42.05413093 464.48738115 45.38184547 464.4926796 C57.00182252 464.51117674 68.62175372 464.51935078 80.241745 464.51777649 C91.05546053 464.51657585 101.86897622 464.5376639 112.68264121 464.56926382 C121.98056701 464.59546142 131.27842769 464.60614229 140.57639009 464.60486567 C146.123398 464.60435698 151.67022834 464.60998883 157.21719933 464.63122177 C162.43839565 464.65066229 167.65924611 464.65068888 172.88045502 464.63618851 C174.78953116 464.63410638 176.69862927 464.63876551 178.60766792 464.65090942 C193.10976733 464.73713651 205.54057632 463.7658766 216.49638367 453.14717102 C224.41552106 444.97663244 227.12554887 435.8911644 228.49638367 424.77217102 C229.39490498 417.73117208 231.23678565 414.30852564 236.37138367 409.39717102 C241.61187727 405.62401562 246.07318678 404.59344715 252.49638367 405.14717102 C259.20953637 406.90232736 263.7354125 409.67229263 267.80888367 415.39717102 C272.86181623 426.55487109 269.36759351 442.02095156 265.49638367 453.14717102 C261.81217816 462.38168952 257.02305224 470.63013732 250.49638367 478.14717102 C249.73325867 479.15779602 248.97013367 480.16842102 248.18388367 481.20967102 C235.59382681 494.97089595 217.89214708 503.63429573 199.49638367 506.14717102 C196.64674815 506.24204432 193.82179824 506.29076877 190.97257996 506.28761292 C189.70563868 506.2920696 189.70563868 506.2920696 188.41310263 506.29661632 C185.58994139 506.3052704 182.76682273 506.30680879 179.94364929 506.30830383 C177.91624359 506.31293445 175.88883876 506.31795944 173.86143494 506.323349 C168.35689386 506.33645418 162.85236498 506.34291465 157.34781075 506.34735966 C153.90467287 506.35029428 150.4615383 506.3543999 147.0184021 506.35886383 C136.23395507 506.37253571 125.44951562 506.38220308 114.66506052 506.38606572 C102.23842136 506.39054155 89.81189246 506.40806871 77.38528681 506.43706632 C67.76634069 506.45872861 58.14742549 506.46877248 48.52845526 506.47010684 C42.79024862 506.47115189 37.05214568 506.47699537 31.31396484 506.49492645 C25.90979884 506.51148516 20.5058136 506.51352495 15.10163116 506.50478745 C13.12728133 506.50402115 11.15292146 506.50830546 9.1785965 506.5182457 C-15.52002191 506.63521947 -37.50318957 500.88265968 -55.68330383 483.09248352 C-72.36435007 466.0495434 -79.16872677 445.70117154 -79.0115509 422.28413391 C-79.01617375 420.75554597 -79.02253585 419.22696249 -79.03045988 417.6983881 C-79.04698674 413.54672108 -79.03898379 409.39542708 -79.02651501 405.24375963 C-79.01739777 400.74741766 -79.03146705 396.25113615 -79.04243469 391.75480652 C-79.06015383 382.96574699 -79.05640952 374.17682466 -79.04478413 365.38775992 C-79.03572395 358.24009822 -79.03453695 351.09247477 -79.03887939 343.94480896 C-79.03949233 342.92471271 -79.04010526 341.90461645 -79.04073676 340.85360819 C-79.04201576 338.78083443 -79.04331261 336.70806067 -79.04462713 334.63528693 C-79.05601358 315.23183326 -79.04294966 295.82845537 -79.02142566 276.42501414 C-79.00355646 259.8020884 -79.00666111 243.17927443 -79.02510071 226.55635071 C-79.04654168 207.21890011 -79.05491512 187.88151581 -79.04265165 168.54405499 C-79.04137755 166.47921436 -79.04012007 164.41437373 -79.03887939 162.34953308 C-79.03826229 161.33378348 -79.03764519 160.31803388 -79.03700939 159.27150398 C-79.03356616 152.13841943 -79.03936261 145.00537719 -79.04879761 137.87229919 C-79.06005489 129.17086566 -79.0568995 120.46957632 -79.03567463 111.76815915 C-79.02521419 107.33470179 -79.02095616 102.90148422 -79.03427124 98.46802902 C-79.04630577 94.39920032 -79.03945337 90.3308307 -79.01836103 86.26204288 C-79.01394128 84.80060869 -79.01605517 83.33913463 -79.02586418 81.87772667 C-79.17107894 58.41888043 -70.72696457 39.19642327 -54.81611633 21.95967102 C-40.22274703 8.00585177 -20.06215172 -0.00474045 0 0 Z " fill="#23D2FE" transform="translate(78.50361633300781,2.8528289794921875)"/>
<path d="M0 0 C3.61636998 2.75857872 6.83109605 5.74274371 10 9 C10.54914063 9.51691406 11.09828125 10.03382812 11.6640625 10.56640625 C15.46455742 14.45835693 17.80288504 19.13290598 20.25 23.9375 C20.5917627 24.60595947 20.93352539 25.27441895 21.28564453 25.96313477 C21.60903809 26.62369873 21.93243164 27.2842627 22.265625 27.96484375 C22.55211914 28.5487085 22.83861328 29.13257324 23.13378906 29.73413086 C26.26505428 37.92501939 26.28845908 45.69398166 26.26742554 54.36950684 C26.27116551 55.8334395 26.27576841 57.29737017 26.28115618 58.7612977 C26.29335931 62.77131642 26.29312888 66.78125153 26.29076743 70.79128456 C26.29035857 75.12142845 26.30140521 79.45154579 26.31088257 83.78167725 C26.32748013 92.26164229 26.3329916 100.74157953 26.33410732 109.22155946 C26.33505864 116.11864233 26.33917311 123.01571605 26.34550858 129.91279602 C26.36311964 149.48464498 26.37234796 169.05647204 26.37084763 188.62832898 C26.37076772 189.6829726 26.3706878 190.73761623 26.37060547 191.82421875 C26.37052371 192.88015663 26.37044195 193.93609451 26.37035771 195.02403051 C26.36954543 212.12317977 26.38866866 229.22224082 26.4168822 246.32136458 C26.44564988 263.89565424 26.45942028 281.46990094 26.45769465 299.04421473 C26.45703196 308.9038786 26.46247067 318.76345005 26.48405075 328.62309265 C26.50231397 337.02094583 26.50656803 345.41866472 26.4930319 353.81652921 C26.48652736 358.0960241 26.48629324 362.37526176 26.5037384 366.65473175 C26.51958709 370.58323721 26.51648695 374.51128403 26.49917014 378.4397791 C26.49612587 379.85031541 26.49963383 381.26088697 26.51089029 382.67138165 C26.61126883 396.15788543 24.1480559 409.03693704 18 421.125 C17.42088867 422.30509644 17.42088867 422.30509644 16.83007812 423.5090332 C13.40939692 430.39024952 9.74290758 437.14251309 6.0168457 443.86230469 C2.82947916 449.61143789 -0.26849235 455.39859381 -3.30078125 461.23046875 C-4.05452375 462.67366952 -4.80843055 464.11678449 -5.5625 465.55981445 C-6.67864951 467.69604403 -7.79129209 469.83369025 -8.89208984 471.97787476 C-18.16070368 490.02197149 -18.16070368 490.02197149 -26.25 495 C-31.97404358 496.52641162 -37.66809379 497.3192319 -43.30859375 495.0859375 C-51.55888608 490.25117262 -55.39394081 482.78162083 -59.5625 474.5 C-60.6257873 472.4235478 -61.69093829 470.34804904 -62.7578125 468.2734375 C-63.29696289 467.22381836 -63.83611328 466.17419922 -64.39160156 465.09277344 C-66.83395544 460.39639533 -69.38309543 455.7610853 -71.9375 451.125 C-76.33696846 443.08665409 -80.7070937 435.03331849 -85 426.9375 C-85.81005493 425.44017334 -85.81005493 425.44017334 -86.63647461 423.91259766 C-95.43342895 407.19381492 -97.31666441 389.97591674 -97.26069641 371.35180664 C-97.26372742 369.95521626 -97.26762158 368.55862754 -97.27228898 367.16204166 C-97.28245523 363.37531973 -97.2804167 359.58869367 -97.27610838 355.80196428 C-97.27362027 351.69827824 -97.28268082 347.59461406 -97.29014587 343.49093628 C-97.30283632 335.47194332 -97.30469376 327.45298393 -97.30234561 319.43398261 C-97.30055636 312.91180535 -97.30232505 306.38963821 -97.30657005 299.86746216 C-97.30716524 298.93617746 -97.30776043 298.00489277 -97.30837366 297.04538733 C-97.30958551 295.15299757 -97.31079964 293.26060782 -97.31201603 291.36821806 C-97.32286925 273.65871174 -97.32073929 255.94922451 -97.31463119 238.23971713 C-97.30946093 222.06580361 -97.32072432 205.8919503 -97.33972941 189.71804869 C-97.359135 173.07463657 -97.36735923 156.4312529 -97.36360615 139.7878294 C-97.36169864 130.4581523 -97.36413798 121.12852646 -97.37832069 111.79885864 C-97.39027003 103.8586857 -97.3915995 95.91859561 -97.37953053 87.97842145 C-97.37366743 83.93384204 -97.37247073 79.8894139 -97.38453293 75.84484482 C-97.39547839 72.13136782 -97.39218717 68.41816682 -97.37827124 64.70470226 C-97.37442004 62.74886919 -97.38509992 60.79302343 -97.39656812 58.83722019 C-97.27727228 38.98294133 -92.22025314 21.66824642 -78.5 6.9375 C-56.90932402 -13.96930842 -25.07121242 -15.20712884 0 0 Z M-50.8125 37.6875 C-56.26479528 45.94383285 -56.43189653 54.06519047 -56.38095093 63.75067139 C-56.38441215 65.13511055 -56.38917983 66.51954694 -56.39513266 67.90397763 C-56.40760923 71.68955008 -56.40148757 75.47489446 -56.39217401 79.26046753 C-56.38536982 83.35059116 -56.39587169 87.44067632 -56.40411377 91.53079224 C-56.41744014 99.53705648 -56.41457784 107.54323625 -56.40587585 115.54950377 C-56.3990935 122.05995912 -56.39818497 128.57039083 -56.4014473 135.08084869 C-56.401907 136.00839726 -56.40236669 136.93594583 -56.40284032 137.89160194 C-56.40379953 139.77610563 -56.40477217 141.66060932 -56.4057581 143.545113 C-56.41430927 161.20968167 -56.40448312 178.87420362 -56.388357 196.53876463 C-56.37496294 211.67886131 -56.37727492 226.81888895 -56.39111328 241.95898438 C-56.40718921 259.55527102 -56.413476 277.15151668 -56.40427649 294.74780965 C-56.40332089 296.62650251 -56.40237777 298.50519537 -56.4014473 300.38388824 C-56.40098447 301.30814515 -56.40052164 302.23240205 -56.40004479 303.18466674 C-56.39746028 309.68137672 -56.40181446 316.1780606 -56.40888596 322.67476654 C-56.41732393 330.60092766 -56.41497307 338.52699972 -56.39904372 346.45315072 C-56.39119044 350.49325519 -56.38801869 354.53321149 -56.39799118 358.57331467 C-56.40700064 362.27951926 -56.40190367 365.98543985 -56.38605852 369.69161907 C-56.38117619 371.65099159 -56.39085124 373.61038418 -56.40123022 375.56973529 C-56.33285754 385.97655386 -55.00236817 396.21195784 -50.00390625 405.4921875 C-49.16569336 407.07386719 -49.16569336 407.07386719 -48.31054688 408.6875 C-47.73369141 409.739375 -47.15683594 410.79125 -46.5625 411.875 C-45.70301758 413.48761719 -45.70301758 413.48761719 -44.82617188 415.1328125 C-41.96943707 420.47152058 -39.0369356 425.76184573 -36 431 C-35.34 431 -34.68 431 -34 431 C-31.01078211 425.29423427 -28.02903624 419.58478373 -25.0625 413.8671875 C-23.38827759 410.64369981 -21.70385616 407.43173372 -19.9375 404.2578125 C-13.8979211 393.11478942 -13.70137577 381.38204424 -13.74603271 368.93121338 C-13.74372229 367.5610973 -13.7405419 366.19098246 -13.73657823 364.82087016 C-13.7283018 361.09366186 -13.73232252 357.36655721 -13.73855066 353.63934875 C-13.74310356 349.60527741 -13.73607753 345.57122304 -13.73059082 341.53715515 C-13.72172626 333.65043992 -13.72360541 325.76376289 -13.7294161 317.8770462 C-13.7339429 311.46629372 -13.7345411 305.0555519 -13.73236847 298.64479828 C-13.732062 297.73051358 -13.73175554 296.81622889 -13.73143978 295.8742386 C-13.7308003 294.01662312 -13.73015188 292.15900764 -13.7294946 290.30139217 C-13.72380025 272.90924286 -13.73033581 255.51711469 -13.74109533 238.12496886 C-13.75003604 223.21106894 -13.74847279 208.29720014 -13.73925781 193.38330078 C-13.72854971 176.04485873 -13.72434318 158.70643515 -13.73048234 141.36799026 C-13.73111941 139.51863973 -13.73174816 137.66928919 -13.73236847 135.81993866 C-13.73267702 134.91011941 -13.73298557 134.00030016 -13.73330347 133.06291063 C-13.73502834 126.65996009 -13.73211992 120.25702129 -13.72740936 113.85407257 C-13.72179481 106.05124675 -13.72332934 98.24846116 -13.73397085 90.44563994 C-13.73921888 86.46678856 -13.74129904 82.48800421 -13.73467255 78.50915337 C-13.72869335 74.86382115 -13.73202053 71.21861783 -13.74262765 67.57329723 C-13.74590386 65.6370065 -13.73940852 63.70070675 -13.73251319 61.76442552 C-13.77323244 52.68519648 -13.92558352 44.22363041 -20 37 C-25.57160649 32.30611234 -30.05351983 30.62670434 -37.3671875 30.72265625 C-43.03531315 31.31974367 -46.75867822 33.81384808 -50.8125 37.6875 Z " fill="#4BAEFE" transform="translate(486,13)"/>
<path d="M0 0 C15.7806842 12.03611507 25.92884821 28.42978822 28.94140625 48.15625 C30.99084328 69.76073198 25.97940104 89.01245175 12.22265625 106.12109375 C14.64602426 108.56164877 17.07638559 110.98354121 19.58203125 113.33984375 C36.62993936 129.60778221 47.2533993 151.41468429 48.22265625 175.12109375 C48.27421875 175.94996094 48.32578125 176.77882813 48.37890625 177.6328125 C48.6297271 184.45722989 48.09059487 190.86828025 43.41796875 196.16796875 C37.96484465 201.14780283 33.50077189 203.36537994 26.01860046 203.38851929 C24.76957947 203.39704926 23.52055847 203.40557922 22.23368835 203.41436768 C20.85720812 203.41366871 19.48072799 203.41274568 18.10424805 203.41162109 C16.64852555 203.41760826 15.19280623 203.42441425 13.73709106 203.43197632 C9.78861179 203.44962543 5.84021923 203.45433126 1.89170432 203.45560789 C-0.57731986 203.45703079 -3.04632208 203.46130303 -5.51534081 203.46660233 C-14.13516003 203.48509974 -22.75491745 203.49327339 -31.37475586 203.49169922 C-39.39947539 203.49049823 -47.42392578 203.5115928 -55.44857723 203.54318655 C-62.34642336 203.56937253 -69.24418171 203.58006553 -76.14207715 203.5787884 C-80.25819342 203.5782794 -84.3740705 203.58392783 -88.4901371 203.6051445 C-92.36361929 203.62456596 -96.2366351 203.62462505 -100.11013412 203.61011124 C-101.52744799 203.60802678 -102.94479134 203.61270241 -104.36205482 203.62483215 C-113.18639237 203.69543199 -120.19739542 203.57068302 -126.8359375 197.12109375 C-127.29097656 196.46109375 -127.74601562 195.80109375 -128.21484375 195.12109375 C-128.68792969 194.46109375 -129.16101563 193.80109375 -129.6484375 193.12109375 C-135.22492793 183.24163665 -131.96838755 166.62169 -129.32519531 156.07519531 C-123.60680949 135.67859989 -111.78019106 120.55558285 -95.77734375 107.12109375 C-96.15246094 106.56421875 -96.52757812 106.00734375 -96.9140625 105.43359375 C-97.99216415 103.82594594 -99.06328256 102.21360204 -100.12890625 100.59765625 C-101.09991836 99.13883711 -102.0879058 97.69066565 -103.11328125 96.26953125 C-113.50589565 81.24326712 -114.20355258 61.89827106 -112.38671875 44.34765625 C-109.94048865 31.8969723 -103.27307673 19.48143673 -94.77734375 10.12109375 C-94.1740625 9.43789062 -93.57078125 8.7546875 -92.94921875 8.05078125 C-68.55772897 -18.02629929 -28.59241528 -19.34311076 0 0 Z M-65.77734375 39.12109375 C-71.35441352 48.24973033 -73.59515296 57.2804227 -71.12890625 67.91796875 C-68.1517951 76.11138576 -62.67117234 82.80521791 -55.07421875 87.1484375 C-47.54356012 90.3374409 -39.4334412 91.15387883 -31.77734375 88.12109375 C-23.5017623 84.32811892 -17.39553388 79.06812562 -13.68359375 70.63671875 C-10.71968324 61.79987446 -11.01171036 54.41991549 -14.44921875 45.765625 C-18.31574555 38.06668781 -24.80982378 32.54709187 -32.46484375 28.80859375 C-45.25277487 26.15449484 -57.14648478 28.95585985 -65.77734375 39.12109375 Z M-79.20703125 147.15625 C-84.72093184 153.96281246 -84.72093184 153.96281246 -86.77734375 162.12109375 C-57.07734375 162.12109375 -27.37734375 162.12109375 3.22265625 162.12109375 C-0.35672009 151.38296472 -7.202985 143.17022299 -16.77734375 137.12109375 C-38.19948493 126.51581151 -62.37256777 129.22388672 -79.20703125 147.15625 Z " fill="#27CEFE" transform="translate(215.77734375,119.87890625)"/>
<path d="M0 0 C1.22944336 -0.00571014 2.45888672 -0.01142029 3.72558594 -0.01730347 C5.09043874 -0.01854882 6.45529166 -0.01967392 7.82014465 -0.02069092 C9.25586576 -0.02531973 10.69158563 -0.03034447 12.12730408 -0.03573608 C16.0304312 -0.04885862 19.93354111 -0.0553051 23.83668685 -0.05974674 C26.27654676 -0.06267854 28.71640199 -0.06678361 31.15625954 -0.07125092 C38.79368575 -0.0849273 46.43110123 -0.09459249 54.06853884 -0.09845281 C62.87750534 -0.10292992 71.68631638 -0.12046104 80.49523562 -0.1494534 C87.30810684 -0.17109566 94.12093441 -0.18115849 100.93383962 -0.18249393 C105.00076575 -0.18354041 109.06754579 -0.18941434 113.13443565 -0.20731354 C116.96349699 -0.22383764 120.79230311 -0.22592883 124.62138748 -0.21717453 C126.02257408 -0.21640639 127.42377465 -0.22071737 128.82492638 -0.23063278 C144.77335798 -0.33682392 144.77335798 -0.33682392 151.35456848 4.93731689 C156.2426207 10.78426931 158.42820602 15.44210103 157.98738098 23.20294189 C157.19685508 29.20003497 154.64254582 32.91790486 150.17488098 36.89044189 C145.40053887 40.39812182 141.80871108 41.38961991 135.9083252 41.40786743 C134.6593042 41.4163974 133.4102832 41.42492737 132.12341309 41.43371582 C130.74693286 41.43301686 129.37045273 41.43209383 127.99397278 41.43096924 C126.53825028 41.43695641 125.08253096 41.44376239 123.6268158 41.45132446 C119.67833652 41.46897358 115.72994396 41.47367941 111.78142905 41.47495604 C109.31240487 41.47637893 106.84340265 41.48065117 104.37438393 41.48595047 C95.7545647 41.50444788 87.13480729 41.51262154 78.51496887 41.51104736 C70.49024934 41.50984638 62.46579895 41.53094094 54.44114751 41.56253469 C47.54330138 41.58872068 40.64554302 41.59941367 33.74764758 41.59813654 C29.63153131 41.59762755 25.51565423 41.60327598 21.39958763 41.62449265 C17.52610544 41.6439141 13.65308963 41.64397319 9.77959061 41.62945938 C8.36227675 41.62737492 6.9449334 41.63205055 5.52766991 41.6441803 C-3.29666764 41.71478013 -10.30767069 41.59003117 -16.94621277 35.14044189 C-17.40125183 34.48044189 -17.85629089 33.82044189 -18.32511902 33.14044189 C-18.79820496 32.48044189 -19.27129089 31.82044189 -19.75871277 31.14044189 C-22.37530215 26.50482333 -22.58343686 21.33480299 -21.88761902 16.14044189 C-19.78313632 9.5123048 -16.87308438 5.32510292 -10.75480652 1.98028564 C-7.00459188 0.29347362 -4.07467018 0.01131859 0 0 Z " fill="#27CEFE" transform="translate(105.88761901855469,363.85955810546875)"/>
</svg>
