<?xml version="1.0" encoding="UTF-8"?>
<svg version="1.1" viewBox="0 0 2048 2048" width="1280" height="1280" xmlns="http://www.w3.org/2000/svg">
<path transform="translate(488)" d="m0 0h1031l17 6 13 7 10 8 272 272 9 13 7 16 2 9 1 9v993l-2 15-6 17-7 11-8 10-8 7-13 8-13 5-14 3h-19l-14-3-12-5-12-7-12-11-8-11-8-16-3-11-1-6-1-960-7-8-209-209-2-1h-966l-22 3-20 6-16 7-16 9-16 12-12 11-12 14-10 15-8 16-6 15-4 14-3 14-1 11v1430l2 19 6 22 8 20 11 19 13 16 5 5v2l4 2 12 11 15 10 19 10 20 7 19 4 7 1 17 1h1015l17-1 17-3 20-6 11-5 14-7 15-10 14-12 9-9 11-14 10-16 8-17 6-19 4-20 2-29 4-17 8-16 7-9 5-6 13-10 16-8 12-3 8-1h14l16 3 12 5 12 7 10 9 8 9 8 14 5 14 2 12v23l-4 36-6 27-7 24-10 25-10 21-16 27-14 19-9 11-11 12-8 9h-2v2l-8 7-11 10-19 14-15 10-17 10-16 8-20 9-30 10-30 7-29 5h-1067l-45-8-26-7-27-10-27-13-22-13-14-10-13-10-13-11-8-7-5-5-12-13-12-14-12-16-11-17-9-16-8-16-9-21-8-24-6-25-4-24-2-21v-1448l3-27 5-26 7-25 9-24 11-24 10-18 16-24 11-14 10-11 7-8 16-16 11-9 15-12 21-14 19-11 25-12 25-9 21-6 34-7z" fill="#03EBFE"/>
<path transform="translate(1e3 351)" d="m0 0h42l29 3 26 5 23 6 28 10 26 12 21 12 15 10 19 14 15 13 6 5v2l4 2 8 8 7 8 9 10 10 13 9 13 12 19 15 29 11 27 9 30 6 31 3 26v45l-2 20-4 25-7 28-8 24-11 25-12 23-14 22-10 13-11 14-12 13-7 7v3l16 11 21 16 11 9 12 11 8 7 17 17 7 8 13 15 12 16 15 22 11 18 12 22 13 28 10 27 8 26 7 30 5 31 2 22 1 18v19l-3 16-6 15-7 11-11 12-11 8-12 6-13 4-21 2h-702l-21-2-14-5-13-7-12-11-8-9-6-10-6-16-2-10v-34l3-32 6-35 7-28 12-36 11-26 9-19 12-21 12-19 14-20 13-16 9-11 12-13 22-22 11-9 9-8 16-12 19-13 4-3-1-4-13-13-9-11-12-15-16-24-10-18-8-16-8-19-10-30-6-26-4-26-2-25v-23l2-26 4-26 6-25 6-20 10-25 12-25 12-20 11-16 11-14 9-11 15-16 8-8 8-7 12-10 19-14 19-12 24-13 23-10 20-7 25-7 27-5zm6 160-20 3-21 6-15 6-15 8-15 10-11 9-6 5v2h-2v2h-2l-7 8-11 14-8 13-8 16-6 15-6 22-2 15-1 23 2 19 4 20 7 21 8 16 8 14 10 13 11 12 8 8 17 13 13 8 16 8 19 7 16 4 13 2 12 1h16l18-2 23-5 21-8 21-11 15-11 14-12 13-14 11-15 10-18 8-19 6-21 3-21v-30l-4-24-5-17-6-15-10-19-9-13-9-11-7-8-8-7-15-12-15-9-16-8-16-6-16-4-19-3zm-4 503-26 3-27 6-27 9-18 8-21 11-18 12-12 9-13 11-3 2v2l-4 2-12 12-9 11-7 8-12 17-11 18-8 16-10 23-4 12v2h523l-1-7-8-21-12-25-13-21-14-19-12-13-7-8-8-8-11-9-15-12-15-10-25-14-23-10-21-7-26-6-19-3-11-1z" fill="#38BBFE"/>
<path transform="translate(555)" d="m0 0h964l17 6 13 7 10 8 272 272 9 13 7 16 2 9 1 9v993l-2 15-6 17-7 11-8 10-8 7-13 8-13 5-14 3h-19l-14-3-12-5-12-7-12-11-8-11-8-16-3-11-1-6-1-960-7-8-209-209-2-1-956-1 3-2 5-1h91l1-1-11-3-14-1v-2h-22l-17-1-6-2h-38l-2-2h-15l1-3 10-3h8l10-2 8-5h2v-2l5-3 12 2h3 8l5 2h22l16 4h17l-9-1-2-4-6-2 1-2h2v-10l3-1v-3h2l-1-5h2l2-4h4v-10l-1-2 3-2-2-9 2-5-1-5-2-4h2l3-9h5l-1-7 1-9-5-2 1-7v-5l-4-2-2-4v-3h-2v-3l11-2-5-5-10-1-50-4-3-1z" fill="#38BBFE"/>
<path transform="translate(1763,1649)" d="m0 0h14l16 3 12 5 12 7 10 9 8 9 8 14 5 14 2 12v23l-4 36-6 27-7 24-10 25-10 21-16 27-14 19-9 11-11 12-8 9h-2v2l-8 7-11 10-19 14-15 10-17 10-16 8-20 9-30 10-30 7-29 5h-946l1-4-9-4 1-4 4-3 5-2 4-6 5-5h2l-1-5h-4l-3-10 2-7v-6l4-6 4-2v2l5-5 2-4 2 2 1-2 3-1v-5l3-4 7-3v-6l1-2h7l-2-6 2-4 3-2-1-4 3-6 3-1 3-4h2v-2l7-3 1-6h-3l-1-4 5-3 12-3h7l-7-1 2-1-2-3-8-1-1-3 10-1 27-1 1-1h46v-2l-10-1h-3l-1-2-3 1-1-1h-84l-18-1h-130l-8-2v-1h1023l17-1 17-3 20-6 11-5 14-7 15-10 14-12 9-9 11-14 10-16 8-17 6-19 4-20 2-29 4-17 8-16 7-9 5-6 13-10 16-8 12-3z" fill="#38BBFE"/>
<path transform="translate(661,1537)" d="m0 0h724l13 2 14 5 12 7 10 8v2h2l10 13 8 17 3 11 1 7v16l-3 14-5 13-7 12-11 12-7 6-14 8-15 5-16 2h-714l-15-2-12-4-12-6-10-8-10-10-9-14-6-16-2-9v-22l4-16 8-16 6-8 9-10 13-9 13-6 11-3z" fill="#38BBFE"/>
<path transform="translate(512,1888)" d="m0 0 5 1h130l18 1h85 4v3l9-1 4 2v2l-41 1-5-1-1 2-27 1-8 1-2-1 1 2 8 1 2 4 7 1 1 2h-10l-15 4-1 5h3l1 4-4 4-5 1v2l-5 5-3 1-2 6v4l-3 1-1 5 2 5v1h-6l-2-1v8l-5 3h-3l-2 5-1 5-3 2-2 2-2-2-1 4-3 3-3-1-4 3-2 5v5l-2 7 2 6v4l5-1v6l-8 7-3 5-6 3-3 1v4l10 3-3 5h-121l-12-2-3-3-4-7-15-6h-8l-4-1-3-3-13-3-16-5v-2l-10-5-9-3-4-4v-2l-3-1v-2l-4-2 2-1 8 3 7 2 12 2 4 2 1-8-8-4-2-4 4-3h4l1-4 4-5 5-1v-2h2l-2-7 2-2 2-4 2-2h6l1-4h2l1-4h4l1-2 2 1-3-4v-8l4-1 8-3 8-1 7-4 4-1 2-4 3-2 2-4 6-1 3-3h11l4-1v-5l-1-1-14-1-1-2-9-1h-9l-14-5-4-5-1-4 11 2h15l2 1h9l9-1 3-1v2l8 1 2 1z" fill="#13DBFE"/>
<path transform="translate(488)" d="m0 0h67v2l31 2 25 2 9 2 4 5-4 1-8 1v3h2l3 7 3 2 1 9-1 3 4 2 1 6-1 4 1 6-2 1h-4l-2 6-1 2h-2l4 5-1 7-1 5 2 7-3 2 1 2v9l-6 2-2 3v4h-2v3l-2 1v8l-3 3 8 4-1 3h9l1 2h-18l-16-4h-22l-5-2h-8-3l-12-2-5 2v2l-12 7-16 1-10 2v2h14l2 2h38l6 2 39 2v2h14l13 3-2 1-1 2h-92l-7 2-26 3-17 4-19 7-19 10-14 10-13 11-12 13-7 9h-6-3l-7 8h-3l-2 1-1-4-7 11-3-1-3 4-5-1-1-12-1-5h2l1-5 2-5 5-5 2-3 2 8 2-2 5-8h2l1-5h8l2-4 10-7 7-6h2l-1-7 2-9h2l1-9 7-6 9-3h3l-3-7-2-7 3-9h-2l-6 7-4 1v2l-6 6-2-3 4-9 8-13 1-3 3-1 7 2 4-1 3-5h2l2-5 2-4 6-5 4-6 3-3v-3-2l-7-1-1 2-1-3 1-2h2l1-4 6-7 1-2h2l2-4 4-3-1-5-4-1-2 1-3-9 1-5 1-4v-4l3-2-8-1-11 4-9 1-14 6-1 1-12 2h-5l3-3-3-1 8-4 2-2-4-1-1-5 9-6 1-2-2-1 25-8 31-7z" fill="#13DBFE"/>
<path transform="translate(630,1115)" d="m0 0 1 2-5 18-2 4-2 11-1 2-1 9-2 6 2 8v13l-4 18-3 15h-1l1-13 1-10-1-3h-3v5l2 3-4 4-2 4 2 3-4 12-1 10h-2l-1 11v6l-1 4h-2v3h-2v2h-4v-10l3-27 5-28 7-28 6-18 6-3 1-7 1-4 3-2 1-10 3-1v-7z" fill="#15DAFE"/>
<path transform="translate(461,161)" d="m0 0h6l2 2v5l-16 6-19 10-14 10-11 9-8-1-1-4 8-11 11-10 7-4 16-6 14-5z" fill="#05EAFE"/>
<path transform="translate(592,1633)" d="m0 0 4 2 2 4-1 2h2l4 8 4 4 2 6h2l4 6 7 8 3 2v2l4 1 1 2 16 8 3 4v2l-10-3-12-6-10-8-10-10-9-14-6-16z" fill="#15DAFE"/>
<path transform="translate(593,1308)" d="m0 0h3l1 5 3 1 3 5v2l3 1 7 12 9 10 4 2 5 5 6 4v5l-6-2-11-7-12-12-7-10-6-12z" fill="#14DAFE"/>
<path transform="translate(631,1569)" d="m0 0h2l-1 4-4 4 2 2-4 4-4 9-2 3h-3l-3 10-2 1-2 5-1-3 2-11 8-16 10-11z" fill="#13DCFF"/>
<path transform="translate(503,2043)" d="m0 0 6 1 16-1 11 2 5-1 11 2-1 2h-59v-1l5-1 1-2z" fill="#38BBFE"/>
<path transform="translate(453,6)" d="m0 0h5l1 5-3 2-14 2-4 2-9-2 1-3 14-4z" fill="#07E8FE"/>
<path transform="translate(391,206)" d="m0 0h3v2l3 1 2 1-1 5-8 9-3-4v-9z" fill="#05E9FE"/>
<path transform="translate(617,1556)" d="m0 0 2 1-5 6-3 6h-2v2h-2l-1 4-3 6-4 1 1-5 7-10z" fill="#1BD4FE"/>
<path transform="translate(630,1115)" d="m0 0 1 2-5 18h-2v-10l3-1v-7z" fill="#13DBFE"/>
<path transform="translate(590,1281)" d="m0 0h2l2 6-1 9-1 2h-2z" fill="#15D9FE"/>
<path transform="translate(609,1642)" d="m0 0h1l3 13 5 6-1 2-5-5-3-5-1-6z" fill="#13DCFF"/>
<path transform="translate(610,1317)" d="m0 0 2 1 3 10 2 1 2 6-4-2-4-6-1-7z" fill="#14DAFE"/>
<path transform="translate(638,1360)" d="m0 0 12 1 2 4-8-1-6-3z" fill="#17D8FE"/>
<path transform="translate(478,159)" d="m0 0 4 2 1 3-8 1v-5z" fill="#09E5FE"/>
</svg>
