<?xml version="1.0" encoding="UTF-8"?>
<svg version="1.1" xmlns="http://www.w3.org/2000/svg" width="512" height="512">
<path d="M0 0 C7.17632333 6.34714413 13.16182644 13.276866 19.125 20.77734375 C19.92035156 21.74414062 20.71570313 22.7109375 21.53515625 23.70703125 C31.33435002 35.91331699 45.72965628 54.20230544 45.39453125 70.5625 C44.77112551 75.68526889 42.92242354 80.04863459 39.18359375 83.64453125 C32.70136311 88.63453569 27.23499157 89.56504471 19.125 88.77734375 C12.62810472 86.8664922 8.42546736 82.77317416 5.07617188 76.95556641 C4.04594605 74.94968613 3.05210286 72.92855094 2.0625 70.90234375 C-4.61918801 57.78967429 -13.7238953 46.3898623 -23.875 35.77734375 C-24.49375 35.10703125 -25.1125 34.43671875 -25.75 33.74609375 C-50.68374383 7.56566273 -89.41955284 -8.4088535 -125.30078125 -9.42578125 C-169.68099555 -10.01987376 -207.93711364 4.94094469 -239.875 35.77734375 C-240.72010132 36.58739868 -240.72010132 36.58739868 -241.58227539 37.41381836 C-268.38532564 63.57896261 -282.03928998 101.46654367 -283.453125 138.359375 C-283.49518066 139.36665649 -283.53723633 140.37393799 -283.58056641 141.41174316 C-283.68252723 143.86681408 -283.7806019 146.32197242 -283.875 148.77734375 C-283.18150402 148.77408862 -282.48800805 148.77083349 -281.77349705 148.76747972 C-240.68056014 148.57498173 -199.58758181 148.39823318 -158.49449038 148.24196549 C-153.56151202 148.22319286 -148.62853418 148.2042885 -143.69555664 148.18530273 C-142.71348055 148.18152519 -141.73140447 148.17774764 -140.7195685 148.17385563 C-124.81336599 148.11235837 -108.90722888 148.04018791 -93.00109034 147.96407995 C-76.68258353 147.88623621 -60.36405917 147.81984626 -44.04546171 147.76411122 C-33.97424256 147.72935199 -23.90314377 147.68563597 -13.83201522 147.63049891 C-6.92791396 147.593556 -0.02382714 147.56772859 6.88035167 147.55066983 C10.86500543 147.54049546 14.84948132 147.52539394 18.83405113 147.49710274 C22.48288167 147.47130351 26.13148233 147.45948117 29.78040152 147.45871487 C31.72380703 147.45468767 33.66716406 147.43575566 35.61047608 147.41627294 C45.1070473 147.43665622 51.17058632 148.82293007 58.125 155.77734375 C61.80965353 161.79561119 61.8024709 167.84778429 61.125 174.77734375 C59.36324458 180.61315857 54.93936503 184.2539274 50.125 187.77734375 C46.89751786 188.85317113 44.57639404 188.90486467 41.18159771 188.90877151 C39.93226914 188.91261266 38.68294057 188.9164538 37.39575356 188.92041135 C36.00168457 188.91963106 34.60761563 188.91875227 33.21354675 188.91778564 C31.73855442 188.92036854 30.26356279 188.92338149 28.78857213 188.92678905 C24.72516693 188.93487113 20.66177938 188.93664929 16.59836709 188.93738651 C12.21993622 188.93923496 7.84151455 188.94678122 3.46308899 188.95352173 C-6.11534189 188.96711393 -15.69376858 188.97313109 -25.2722075 188.97753239 C-31.25052559 188.98029319 -37.22884205 188.98453023 -43.20715904 188.98903656 C-59.75234914 189.00123015 -76.29753794 189.01152944 -92.84273243 189.01491165 C-94.43166757 189.015241 -94.43166757 189.015241 -96.05270241 189.015577 C-97.11455673 189.01579528 -98.17641106 189.01601356 -99.27044278 189.01623845 C-101.42223855 189.01668192 -103.57403431 189.01712848 -105.72583008 189.01757812 C-106.7931998 189.01779955 -107.86056952 189.01802098 -108.96028378 189.01824912 C-126.26048391 189.02219822 -143.56064195 189.03965525 -160.86082581 189.06293765 C-178.61344626 189.08663653 -196.36604556 189.09911283 -214.11868209 189.10027957 C-224.08986972 189.10119713 -234.06100251 189.10696982 -244.03217506 189.12509918 C-252.52190908 189.14048041 -261.01157129 189.14563233 -269.50131658 189.13736108 C-273.83417998 189.13344761 -278.16689871 189.13441806 -282.49974442 189.14841843 C-286.46547982 189.16111559 -290.43096122 189.15999687 -294.39669605 189.14782771 C-295.83210308 189.14586344 -297.26752785 189.14898277 -298.70290992 189.15767208 C-300.65326869 189.16873228 -302.60371096 189.15950413 -304.55407429 189.14928055 C-305.63768877 189.14987764 -306.72130326 189.15047472 -307.83775455 189.15108991 C-313.38581994 188.46837652 -317.15001864 185.99357435 -320.6875 181.77734375 C-321.27144531 181.09671875 -321.85539062 180.41609375 -322.45703125 179.71484375 C-324.72080449 176.62164395 -325.00646214 173.97498819 -325.05200195 170.25952148 C-325.06464584 169.34172913 -325.07728973 168.42393677 -325.09031677 167.47833252 C-325.09789505 166.48259216 -325.10547333 165.48685181 -325.11328125 164.4609375 C-325.1230751 163.42515564 -325.13286896 162.38937378 -325.14295959 161.32220459 C-325.46891367 117.87112744 -325.46891367 117.87112744 -320.875 98.77734375 C-320.66601074 97.875 -320.45702148 96.97265625 -320.24169922 96.04296875 C-311.22806743 58.23297772 -289.10086756 20.5121787 -258.875 -4.22265625 C-257.84364229 -5.10143611 -256.81240265 -5.98035454 -255.78125 -6.859375 C-181.43930666 -69.26205637 -73.73029085 -63.76522774 0 0 Z " fill="#2EC8FE" transform="translate(387.875,323.22265625)"/>
<path d="M0 0 C1.22589844 0.3403125 2.45179688 0.680625 3.71484375 1.03125 C24.04931533 7.24281201 41.86434033 18.20931263 57 33 C57.80179688 33.73992188 58.60359375 34.47984375 59.4296875 35.2421875 C65.67773122 41.14431876 70.37906768 47.81377069 75 55 C75.61875 55.94617187 76.2375 56.89234375 76.875 57.8671875 C93.61514818 84.84572988 98.70694139 120.03039149 91.54345703 150.85400391 C84.37175023 179.17354694 68.77879566 205.56666947 45 223 C44.0409375 223.73476562 43.081875 224.46953125 42.09375 225.2265625 C14.63708974 245.40304769 -19.42331177 252.44812319 -52.86669922 247.54467773 C-75.54548774 243.75667607 -96.52392849 233.87020039 -114 219 C-114.89074219 218.26007813 -115.78148437 217.52015625 -116.69921875 216.7578125 C-139.13200759 197.45118565 -155.49400365 166.91870441 -157.87109375 137.20507812 C-159.97995204 101.13082041 -151.9143801 67.37985723 -127.5625 39.8125 C-126.05108555 38.19945596 -124.53018743 36.59524642 -123 35 C-122.24203125 34.17886719 -121.4840625 33.35773437 -120.703125 32.51171875 C-105.2853543 16.31298254 -85.38682535 5.93940996 -64 0 C-62.23462891 -0.51046875 -62.23462891 -0.51046875 -60.43359375 -1.03125 C-42.00763749 -5.40008266 -18.21075443 -5.23321796 0 0 Z M-93.06640625 62.9140625 C-109.47599388 79.88143799 -117.7410653 101.59612517 -117.40283203 125.09619141 C-116.55754287 148.2628453 -107.17074537 167.55044868 -91 184 C-89.97132813 185.04800781 -89.97132813 185.04800781 -88.921875 186.1171875 C-73.79046753 200.52004572 -52.65112952 207.72345545 -32 208.375 C-10.69631591 207.70286731 8.98296801 200.08664052 25 186 C25.75023437 185.34515625 26.50046875 184.6903125 27.2734375 184.015625 C43.67901356 168.70375401 52.58978902 147.37908196 53.40283203 125.09619141 C53.73227518 102.20685285 45.90116822 82.22407006 31 65 C30.43925781 64.33871094 29.87851562 63.67742187 29.30078125 62.99609375 C21.21302347 54.21568165 10.12480233 47.11854384 -1 43 C-1.98097656 42.63261719 -2.96195312 42.26523437 -3.97265625 41.88671875 C-35.52195033 31.13572015 -69.57483509 39.59436305 -93.06640625 62.9140625 Z " fill="#34C3FE" transform="translate(288,3)"/>
</svg>
